# xmcd
#
# Track frame offsets:
# 150
# 2198
# 20644
# 39408
# 58170
# 76454
# 92559
# 109301
# 125610
# 141966
# 159681
# 177816
# 193878
# 208404
#
# Disc length: 2988 seconds
#
#
# Revision: 0
# Processed by: cddbd v1.4PL0 Copyright (c) Steve Scherf et al.
# Submitted via: FreeRIP 2.30 
#
DISCID=cc0baa0e
DTITLE=김지현 - second Time
DYEAR=2003
DGENRE=Blues
TTITLE0=This is...
TTITLE1=The Blues
TTITLE2=애원
TTITLE3=지난해 이별
TTITLE4=말해
TTITLE5=Hey DJ
TTITLE6=슬픈여자
TTITLE7=태양을 향해 서라
TTITLE8=거짓말
TTITLE9=착한사랑
TTITLE10=이별을 하고
TTITLE11=마지막 탱고
TTITLE12=날개잃은 천사
TTITLE13=Eros
EXTD=
EXTT0=
EXTT1=
EXTT2=
EXTT3=
EXTT4=
EXTT5=
EXTT6=
EXTT7=
EXTT8=
EXTT9=
EXTT10=
EXTT11=
EXTT12=
EXTT13=
PLAYORDER=
